<?xml version="1.0" encoding="utf-8"?>
<!-- Generator: Adobe Illustrator 21.1.0, SVG Export Plug-In . SVG Version: 6.00 Build 0)  -->
<svg version="1.1" id="Ebene_1" xmlns="http://www.w3.org/2000/svg" xmlns:xlink="http://www.w3.org/1999/xlink" x="0px" y="0px"
	 viewBox="0 0 250 250" style="enable-background:new 0 0 250 250;" xml:space="preserve">
<style type="text/css">
	.st0{fill:#E75454;}
	.st1{fill:#5D4595;}
</style>
<polygon class="st0" points="83.3,73.5 48,108.7 125.3,186 202.1,109.1 166.5,73.5 "/>
<g>
	<path class="st1" d="M160.9,101.4l-5.5-5.5l-13.8,13.8l23.6,23.6l6.1-6.1l-9.2-9.2l6.3-6.3l-5.5-5.5l-6.3,6.3l-3.4-3.4L160.9,101.4
		z M162,136.6L138.4,113l-5.8,5.8l10.7,10.7l-15.5-5.9l-6.2,6.2l23.6,23.6l5.8-5.8l-10.9-10.9l15.9,6L162,136.6z M125,149.9
		c5,5,5.6,7.6,4.1,9.1c-1.5,1.5-4.1,0.8-9.1-4.1c-5-5-5.6-7.6-4.1-9.1S120,144.9,125,149.9 M131.3,143.6c-6.8-6.8-15.2-9.2-20.9-3.4
		s-3.4,14.1,3.4,20.9c6.8,6.8,15.2,9.2,20.9,3.4S138.1,150.4,131.3,143.6"/>
	<path class="st1" d="M141.8,77.9l-6.2,6.2c2.1,2.5,2.1,3.5,1.1,4.4c-2,2-4.6-0.2-8.9-4.5c-4.3-4.3-6.4-6.9-4.4-8.8
		c0.8-0.8,1.8-1,3.9,0.8l6.1-6.1c-5.6-5-10.4-5.4-15.5-0.4c-6.2,6.2-4.6,12.7,3.5,20.8c8.1,8.1,14.6,9.7,20.6,3.7
		C147.6,88.5,147.3,84.3,141.8,77.9 M130.7,104.7l-23.6-23.6l-5.8,5.8L112,97.6l-15.5-5.9l-6.2,6.2l23.6,23.6l5.8-5.8l-10.9-10.9
		l15.9,6L130.7,104.7z M103.7,116.6l-16.1-16.1l-5.9,5.9l15.9,15.9c1.4,1.4,1.3,3.2-0.2,4.7c-1.5,1.5-3.3,1.6-4.7,0.1l-15.9-15.9
		l-6.1,6.1l16.1,16.1c5,5,11.4,4.4,16.4-0.5C108.1,128,108.6,121.6,103.7,116.6"/>
</g>
</svg>
